<mxfile host="app.diagrams.net" modified="2024-02-27T16:34:08.524Z" agent="Mozilla/5.0 (Windows NT 10.0; Win64; x64) AppleWebKit/537.36 (KHTML, like Gecko) Chrome/122.0.0.0 Safari/537.36" version="23.1.7" etag="z7sn9mCwnxbmA1GrwP4z" type="github">
  <diagram name="Page-1" id="KVlvGBYPqi4su6cxXNzW">
    <mxGraphModel>
      <root>
        <mxCell id="0" />
        <mxCell id="1" parent="0" />
      </root>
    </mxGraphModel>
  </diagram>
</mxfile>
